HIERARCHY
ROOT Hips
{
	OFFSET 0.000000 0.000000 0.000000
	CHANNELS 6 Xposition Yposition Zposition Zrotation Yrotation Xrotation 
	JOINT LHipJoint
	{
		OFFSET 0.000000 0.000000 0.000000
		CHANNELS 3 Zrotation Yrotation Xrotation
		JOINT LeftUpLeg
		{
			OFFSET 1.363060 -1.794630 0.839290
			CHANNELS 3 Zrotation Yrotation Xrotation
			JOINT LeftLeg
			{
				OFFSET 2.448110 -6.726130 0.000000
				CHANNELS 3 Zrotation Yrotation Xrotation
				JOINT LeftFoot
				{
					OFFSET 2.562200 -7.039590 0.000000
					CHANNELS 3 Zrotation Yrotation Xrotation
					JOINT LeftToeBase
					{
						OFFSET 0.157640 -0.433110 2.322550
						CHANNELS 3 Zrotation Yrotation Xrotation
						End Site
						{
							OFFSET 0.000000 0.000000 0.000000
						}
					}
				}
			}
		}
	}
	JOINT RHipJoint
	{
		OFFSET 0.000000 0.000000 0.000000
		CHANNELS 3 Zrotation Yrotation Xrotation
		JOINT RightUpLeg
		{
			OFFSET -1.305520 -1.794630 0.839290
			CHANNELS 3 Zrotation Yrotation Xrotation
			JOINT RightLeg
			{
				OFFSET -2.542530 -6.985550 0.000000
				CHANNELS 3 Zrotation Yrotation Xrotation
				JOINT RightFoot
				{
					OFFSET -2.568260 -7.056230 0.000000
					CHANNELS 3 Zrotation Yrotation Xrotation
					JOINT RightToeBase
					{
						OFFSET -0.164730 -0.452590 2.363150
						CHANNELS 3 Zrotation Yrotation Xrotation
						End Site
						{
							OFFSET 0.000000 0.000000 0.000000
						}
					}
				}
			}
		}
	}
}
MOTION
Frames: 19
Frame Time: 0.008333
3.093784 16.867632 -1.439211 -169.790376 57.718461 -151.409858 -12.007211 2.618893 3.557427 -9.956114 -10.797534 -5.784913 -1.627082 0.408184 21.633561 -0.072457 -4.158404 -10.457683 0.208700 0.000000 -22.712900 6.561421 -1.203989 4.685130 8.272795 12.314337 -39.467233 3.406991 -0.845982 21.141525 1.374728 8.801338 0.111907 0.931700 0.000000 -46.142200
3.219859 16.843191 -1.512093 -169.896343 57.227083 -151.727097 -12.052307 2.725327 3.543804 -9.836249 -10.622413 -5.251705 -1.595295 0.480455 22.017729 -0.101111 -4.323973 -9.972215 0.206900 -0.000000 -24.491800 6.581754 -1.199450 4.644808 8.271129 12.607419 -39.574713 3.201651 -1.038939 23.455001 1.180229 7.926118 -1.252235 0.681600 -0.000000 -44.354800
3.343271 16.823200 -1.587152 -169.964025 56.698581 -152.051433 -12.105511 2.835338 3.521543 -9.678320 -10.419257 -4.694965 -1.550863 0.560329 22.388825 -0.128426 -4.461612 -9.320910 0.191800 -0.000000 -26.701199 6.602624 -1.195562 4.568054 8.364537 12.765612 -39.503089 3.024320 -1.205744 25.552096 0.990348 7.106548 -2.552869 0.480200 0.000000 -43.199599
3.464016 16.808124 -1.664134 -169.986456 56.129984 -152.372047 -12.168618 2.948163 3.488825 -9.471014 -10.171350 -4.137402 -1.494425 0.647331 22.763931 -0.152913 -4.573811 -8.527993 0.163201 -0.000000 -29.204700 6.619368 -1.199113 4.462047 8.562444 12.796181 -39.234000 2.883185 -1.340990 27.341292 0.810545 6.348534 -3.750544 0.324500 0.000000 -42.673400
3.582184 16.798082 -1.742803 -169.960988 55.518036 -152.679847 -12.242854 3.064018 3.444733 -9.205066 -9.859981 -3.606359 -1.425425 0.741299 23.160034 -0.173306 -4.661867 -7.592946 0.120000 0.000000 -32.152000 6.628735 -1.215521 4.334881 8.864451 12.710216 -38.767969 2.781559 -1.443005 28.772252 0.643718 5.651720 -4.825236 0.208300 0.000000 -42.684700
3.698120 16.792977 -1.822652 -169.898768 54.861717 -152.976620 -12.326745 3.182610 3.389497 -8.880035 -9.472286 -3.129311 -1.345196 0.841026 23.597503 -0.188010 -4.728082 -6.536637 0.062401 0.000000 -35.503100 6.630439 -1.247312 4.194141 9.258002 12.518319 -38.121401 2.718073 -1.512833 29.832709 0.491051 5.014105 -5.770483 0.124700 -0.000000 -43.084300
3.812080 16.792516 -1.903266 -169.817009 54.161323 -153.269164 -12.416056 3.302122 3.324839 -8.506616 -9.006998 -2.729853 -1.258448 0.943836 24.105603 -0.195589 -4.777295 -5.433686 -0.005500 -0.000000 -38.647799 6.627241 -1.294232 4.046265 9.718371 12.228179 -37.322023 2.687857 -1.553427 30.542075 0.352941 4.434402 -6.586860 0.067100 0.000000 -43.700400
3.924447 16.796225 -1.984220 -169.732750 53.418074 -153.562211 -12.508141 3.423048 3.252123 -8.092782 -8.456554 -2.431597 -1.164121 1.049064 24.693609 -0.195024 -4.805286 -4.255186 -0.085600 0.000000 -42.006899 6.622470 -1.354943 3.897962 10.218031 11.853959 -36.404453 2.683960 -1.568775 30.939116 0.228572 3.905803 -7.276604 0.029400 0.000000 -44.369500
4.035549 16.803580 -2.065069 -169.671805 52.638104 -153.867427 -12.597006 3.543407 3.174255 -7.659664 -7.830957 -2.251629 -1.066839 1.154003 25.384268 -0.185688 -4.812316 -3.064549 -0.172801 0.000000 -44.972500 6.622244 -1.425883 3.754319 10.721726 11.405864 -35.410795 2.697589 -1.563992 31.082427 0.117726 3.426334 -7.843906 0.006401 -0.000000 -44.962100
4.145564 16.814077 -2.145599 -169.649350 51.828161 -154.186255 -12.678799 3.662101 3.093844 -7.225776 -7.138120 -2.204068 -0.967558 1.257106 26.186237 -0.167159 -4.792867 -1.867695 -0.265500 -0.000000 -47.424901 6.631879 -1.503589 3.620221 11.197052 10.899032 -34.385308 2.720065 -1.544707 31.038058 0.019949 2.992270 -8.293068 -0.006200 0.000000 -45.396000
4.254605 16.827221 -2.225638 -169.679766 50.998030 -154.519269 -12.750279 3.777972 3.013382 -6.809698 -6.388269 -2.299070 -0.866353 1.357003 27.100395 -0.138734 -4.737002 -0.656048 -0.361900 -0.000000 -49.379900 6.656318 -1.584505 3.499659 11.615960 10.350066 -33.372235 2.743209 -1.516825 30.875181 -0.064963 2.601633 -8.629907 -0.012300 0.000000 -45.642300
4.362335 16.842639 -2.305364 -169.758808 50.157093 -154.854912 -12.811592 3.889139 2.933352 -6.422557 -5.586884 -2.539668 -0.761559 1.452770 28.118542 -0.099089 -4.631521 0.596965 -0.460900 -0.000000 -50.968900 6.697116 -1.666157 3.395349 11.961855 9.780389 -32.406427 2.760994 -1.485758 30.654703 -0.137513 2.250478 -8.859296 -0.014900 0.000001 -45.723201
4.468690 16.860062 -2.384708 -169.893864 49.318151 -155.189799 -12.860653 3.993541 2.855843 -6.081428 -4.750290 -2.924742 -0.654138 1.542763 29.233984 -0.047631 -4.465445 1.882937 -0.557300 0.000001 -51.924700 6.757201 -1.745834 3.308820 12.219995 9.203400 -31.523084 2.768402 -1.456671 30.434557 -0.197160 1.942919 -8.990333 -0.016100 -0.000000 -45.699400
4.573131 16.879250 -2.463933 -170.069874 48.490687 -155.509401 -12.900167 4.088496 2.779376 -5.788519 -3.882289 -3.445893 -0.542466 1.626266 30.428694 0.017287 -4.223711 3.226796 -0.646900 0.000000 -52.391899 6.834234 -1.822595 3.239864 12.392676 8.636854 -30.737221 2.763777 -1.432898 30.249454 -0.244173 1.677847 -9.028511 -0.017700 -0.000000 -45.660100
4.675205 16.900111 -2.543181 -170.275928 47.683707 -155.805079 -12.932022 4.171178 2.702498 -5.545212 -2.989949 -4.090220 -0.427019 1.702366 31.685354 0.096544 -3.895017 4.627195 -0.722200 -0.000000 -52.299500 6.925586 -1.895745 3.186766 12.487282 8.091197 -30.054816 2.747179 -1.416420 30.119815 -0.278436 1.457698 -8.980552 -0.020701 -0.000000 -45.700900
4.774394 16.922543 -2.622601 -170.496446 46.902708 -156.069290 -12.958685 4.238716 2.622971 -5.347846 -2.079237 -4.839408 -0.308905 1.770465 32.983946 0.190609 -3.470534 6.076345 -0.773600 0.000000 -51.648100 7.027143 -1.965300 3.146329 12.517746 7.571920 -29.468563 2.720639 -1.407497 30.046986 -0.300006 1.284188 -8.851555 -0.025700 -0.000001 -45.907300
4.870325 16.946462 -2.702148 -170.718062 46.150400 -156.299772 -12.982415 4.288601 2.537800 -5.187787 -1.154670 -5.672555 -0.190558 1.830467 34.305739 0.298949 -2.946315 7.550697 -0.790400 -0.000001 -50.434100 7.133990 -2.031629 3.114292 12.502921 7.080673 -28.958991 2.687272 -1.404783 30.015810 -0.309573 1.155778 -8.645922 -0.032700 -0.000001 -46.338300
4.962699 16.971768 -2.781788 -170.928463 45.425079 -156.497234 -13.004766 4.318981 2.444302 -5.054648 -0.221649 -6.569838 -0.075850 1.882930 35.637552 0.419221 -2.326066 9.001309 -0.761400 -0.000001 -48.610800 7.241343 -2.095328 3.086240 12.462017 6.615301 -28.500095 2.650708 -1.405858 30.000734 -0.308314 1.068634 -8.368397 -0.041700 0.000000 -47.017800
5.051426 16.998364 -2.861363 -171.120072 44.721540 -156.666630 -13.026098 4.329164 2.340655 -4.938482 0.711468 -7.511085 0.031103 1.929103 36.966677 0.547749 -1.619407 10.371304 -0.678800 -0.000000 -46.194099 7.345345 -2.156993 3.057581 12.412283 6.170073 -28.062770 2.614327 -1.407830 29.971415 -0.298120 1.015143 -8.024735 -0.052100 0.000001 -47.930900
